# xmcd
#
# Track frame offsets: 
#        150
#        15384
#        31740
#        49214
#        65276
#        80949
#        96852
#        115465
#        131114
#        150942
#
# Disc length: 2259 seconds
#
# Revision: 1
# Processed by: cddbd v1.5.2PL0 Copyright (c) Steve Scherf et al.
# Submitted via: ExactAudioCopy v1.0b3
#
DISCID=7b08d10a
DTITLE=Various Artist - T'kam Fiksim
DYEAR=2013
DGENRE=Country
TTITLE0=T'kam Fiksim
TTITLE1=Zemër Zemër
TTITLE2=Sa vuaj për ty
TTITLE3=Fore
TTITLE4=Kjo Zemër
TTITLE5=Natën e Mirë
TTITLE6=Më ke Vrarë
TTITLE7=Carrito
TTITLE8=Të Dashuroj
TTITLE9=Dance
EXTD=
EXTT0=
EXTT1=
EXTT2=
EXTT3=
EXTT4=
EXTT5=
EXTT6=
EXTT7=
EXTT8=
EXTT9=
PLAYORDER=
